# xmcd CD database file
#
# Track frame offsets:
#	200
#	14207
#	23215
#	34097
#	45422
#	58167
#	71285
#	82242
#	97117
#	109687
#	120105
#	134042
#	146142
#	159370
#	170557
#	185757
#	196645
#	207882
#
# Disc length: 2920 seconds
#
# Revision: 0
# Processed by: cddbd v1.5PL3 Copyright (c) Steve Scherf et al.
# Submitted via: CDex 1.51
#
DISCID=030b6612
DTITLE=Juan Acereto - Trova Yucateca - Disco 2
DYEAR=1900
DGENRE=Español
TTITLE0=En mis brazos
TTITLE1=Psicosis
TTITLE2=Como tu quieras
TTITLE3=Tu amor
TTITLE4=La rosa de mis sueños
TTITLE5=Flor del mal
TTITLE6=Ella
TTITLE7=Semejanzas
TTITLE8=Quisiera
TTITLE9=El jaguar
TTITLE10=Para olvidarte
TTITLE11=Beso asesino
TTITLE12=Flor
TTITLE13=Granito de sal
TTITLE14=Pajaro azul
TTITLE15=Nunca
TTITLE16=Claveles rojos
TTITLE17=Desden
EXTD=
EXTT0=
EXTT1=
EXTT2=
EXTT3=
EXTT4=
EXTT5=
EXTT6=
EXTT7=
EXTT8=
EXTT9=
EXTT10=
EXTT11=
EXTT12=
EXTT13=
EXTT14=
EXTT15=
EXTT16=
EXTT17=
PLAYORDER=
